<svg width="24" height="25" viewBox="0 0 24 25" fill="none" xmlns="http://www.w3.org/2000/svg">
<path d="M11.9999 15.4999C11.8683 15.5007 11.7379 15.4755 11.616 15.4257C11.4942 15.3759 11.3834 15.3026 11.2899 15.2099L7.28994 11.2099C7.10164 11.0216 6.99585 10.7662 6.99585 10.4999C6.99585 10.2336 7.10164 9.97824 7.28994 9.78994C7.47824 9.60164 7.73364 9.49585 7.99994 9.49585C8.26624 9.49585 8.52164 9.60164 8.70994 9.78994L11.9999 13.0899L15.2899 9.79994C15.4812 9.63611 15.7273 9.55051 15.979 9.56023C16.2307 9.56995 16.4694 9.67428 16.6475 9.85238C16.8256 10.0305 16.9299 10.2692 16.9397 10.5209C16.9494 10.7726 16.8638 11.0186 16.6999 11.2099L12.6999 15.2099C12.5137 15.3947 12.2623 15.4988 11.9999 15.4999Z" fill="#313131"/>
</svg>
